<svg width="905" height="587" viewBox="0 0 905 587" fill="none" xmlns="http://www.w3.org/2000/svg">
<g clip-path="url(#clip0_2343_17289)">
<path d="M28.6623 450.064C33.1441 404.317 60.2325 358.652 103.333 342.679C87.4067 390.06 88.7529 441.548 107.134 488.032C114.287 505.934 124.108 525.099 118.297 543.481C114.682 554.918 105.341 563.84 94.7875 569.542C84.2338 575.243 72.4318 578.137 60.7771 580.976L58.5201 582.944C38.8181 541.414 24.1804 495.811 28.6623 450.064Z" fill="#F0F0F0"/>
<path d="M103.787 343.53C79.4517 372.253 64.1351 408.937 61.4571 446.544C60.8781 454.675 60.9984 462.973 62.9796 470.921C64.9703 478.653 68.9952 485.711 74.6361 491.361C79.7898 496.735 85.6838 501.635 89.4414 508.169C93.4021 515.055 93.7542 522.988 91.3609 530.475C88.4325 539.635 82.3873 547.197 76.2186 554.386C69.3695 562.369 62.1289 570.552 59.4006 580.969C59.0701 582.231 57.1309 581.644 57.461 580.384C62.2077 562.26 79.4029 551.587 87.3079 535.168C90.9965 527.507 92.3986 518.688 88.5478 510.803C85.1803 503.907 79.1067 498.849 73.8414 493.453C68.3128 487.786 64.0237 481.523 61.6993 473.891C59.3216 466.084 58.8766 457.773 59.2452 449.663C60.2181 431.28 64.0755 413.163 70.676 395.978C78.1003 376.323 88.8323 358.082 102.408 342.046C103.248 341.054 104.622 342.544 103.787 343.53Z" fill="white"/>
<path d="M61.6827 434.275C55.3851 432.918 49.7746 429.368 45.8532 424.257C41.9318 419.146 39.9549 412.808 40.2754 406.374C40.2908 406.111 40.4075 405.865 40.6008 405.687C40.7941 405.509 41.0489 405.413 41.3116 405.42C41.5742 405.426 41.8242 405.534 42.0088 405.721C42.1934 405.908 42.2982 406.159 42.3012 406.422C41.9916 412.413 43.8338 418.317 47.4951 423.069C51.1565 427.82 56.3958 431.107 62.2675 432.335C63.5432 432.603 62.9511 434.541 61.6827 434.275Z" fill="white"/>
<path d="M71.664 488.981C82.7907 481.937 90.8539 470.959 94.2458 458.234C94.5808 456.973 96.52 457.56 96.1854 458.819C92.6311 472.054 84.2169 483.461 72.622 490.766C71.5164 491.461 70.5644 489.672 71.664 488.981Z" fill="white"/>
<path d="M80.0291 378.192C82.3565 379.225 84.9038 379.663 87.4424 379.468C89.981 379.272 92.4313 378.45 94.5733 377.073C95.6695 376.364 96.6204 378.154 95.5313 378.858C93.1576 380.368 90.4504 381.273 87.6461 381.495C84.8419 381.717 82.0259 381.249 79.4443 380.132C79.1921 380.047 78.9817 379.869 78.8559 379.635C78.7301 379.4 78.6982 379.127 78.7669 378.87C78.8456 378.613 79.0223 378.398 79.2587 378.271C79.495 378.145 79.7719 378.116 80.0291 378.192Z" fill="white"/>
<path d="M238.013 420.668C237.341 421.13 236.669 421.593 235.997 422.072C226.996 428.333 218.518 435.316 210.647 442.95C210.029 443.53 209.411 444.128 208.811 444.725C190.045 463.32 174.894 485.237 164.128 509.363C159.853 518.967 156.315 528.882 153.544 539.023C149.719 553.029 146.685 568.518 138.691 580.101C137.871 581.319 136.976 582.484 136.011 583.591L61.0956 585.545C60.9231 585.464 60.7503 585.4 60.577 585.319L57.5894 585.533C57.6957 585 57.8175 584.45 57.9239 583.917C57.9843 583.608 58.0614 583.298 58.1218 582.988C58.1674 582.782 58.2138 582.575 58.2431 582.386C58.258 582.318 58.2737 582.249 58.2891 582.197C58.3184 582.008 58.3657 581.836 58.3954 581.664C59.0676 578.585 59.7626 575.505 60.4804 572.425C60.48 572.408 60.48 572.408 60.4962 572.39C66.0255 548.933 73.5617 525.732 84.3798 504.412C84.7055 503.771 85.0299 503.113 85.3898 502.47C90.3194 492.887 96.024 483.723 102.447 475.07C105.979 470.343 109.748 465.798 113.739 461.452C124.075 450.242 136.109 440.728 149.401 433.258C175.901 418.371 206.867 412.124 235.808 420.042C236.548 420.245 237.273 420.448 238.013 420.668Z" fill="#F0F0F0"/>
<path d="M237.87 421.624C201.146 429.906 166.83 449.975 142.05 478.39C136.692 484.533 131.792 491.231 128.589 498.77C125.523 506.142 124.488 514.2 125.59 522.108C126.469 529.502 128.225 536.963 127.291 544.442C126.308 552.325 121.813 558.87 115.394 563.407C107.541 568.958 98.1615 571.356 88.9076 573.383C78.6329 575.633 67.9251 577.807 59.4749 584.482C58.4511 585.291 57.256 583.655 58.2783 582.847C72.9802 571.234 93.1353 573.065 109.332 564.715C116.89 560.819 123.319 554.621 124.992 546.007C126.455 538.474 124.651 530.778 123.696 523.299C122.693 515.447 123.039 507.864 125.778 500.37C128.58 492.705 133.229 485.801 138.406 479.548C150.251 465.456 164.238 453.313 179.855 443.566C197.617 432.342 217.168 424.239 237.662 419.608C238.93 419.322 239.13 421.34 237.87 421.624Z" fill="white"/>
<path d="M149.617 468.728C145.406 463.854 143.064 457.641 143.01 451.199C142.956 444.758 145.194 438.507 149.323 433.562C150.162 432.565 151.752 433.822 150.912 434.821C147.058 439.417 144.974 445.241 145.036 451.239C145.099 457.238 147.303 463.016 151.252 467.532C152.109 468.514 150.469 469.705 149.617 468.728Z" fill="white"/>
<path d="M124.65 518.417C137.775 519.493 150.823 515.582 161.192 507.464C162.219 506.659 163.414 508.295 162.388 509.099C151.582 517.526 137.996 521.569 124.34 520.42C123.039 520.309 123.356 518.308 124.65 518.417Z" fill="white"/>
<path d="M198.031 434.996C199.268 437.221 201.038 439.105 203.183 440.477C205.327 441.85 207.779 442.668 210.318 442.859C211.62 442.953 211.302 444.954 210.008 444.861C207.204 444.637 204.497 443.73 202.124 442.219C199.752 440.708 197.785 438.639 196.397 436.192C196.246 435.973 196.185 435.704 196.226 435.441C196.267 435.178 196.406 434.941 196.616 434.777C196.833 434.619 197.104 434.554 197.369 434.595C197.634 434.636 197.872 434.78 198.031 434.996Z" fill="white"/>
<path d="M677.703 40.1376C676.585 36.8349 662.558 25.6078 671.153 23.7208L678.202 33.1194L710.608 0.713379L713.868 3.97267L677.703 40.1376Z" fill="#FF6366"/>
<path d="M677.703 150.332C676.585 147.029 662.558 135.802 671.153 133.915L678.202 143.314L710.608 110.908L713.868 114.167L677.703 150.332Z" fill="#FF6366"/>
<path d="M677.703 262.1C676.585 258.797 662.558 247.57 671.153 245.683L678.202 255.082L710.608 222.676L713.868 225.935L677.703 262.1Z" fill="#FF6366"/>
<path d="M647.862 171.738C653.385 171.738 657.862 167.261 657.862 161.738C657.862 156.215 653.385 151.738 647.862 151.738C642.339 151.738 637.862 156.215 637.862 161.738C637.862 167.261 642.339 171.738 647.862 171.738Z" fill="#3F3D56"/>
<path d="M647.862 62.7383C653.385 62.7383 657.862 58.2611 657.862 52.7383C657.862 47.2154 653.385 42.7383 647.862 42.7383C642.339 42.7383 637.862 47.2154 637.862 52.7383C637.862 58.2611 642.339 62.7383 647.862 62.7383Z" fill="#3F3D56"/>
<path d="M904.361 29.7383H743.361V31.7383H904.361V29.7383Z" fill="#3F3D56"/>
<path d="M652.862 287.932C658.385 287.932 662.862 283.455 662.862 277.932C662.862 272.409 658.385 267.932 652.862 267.932C647.339 267.932 642.862 272.409 642.862 277.932C642.862 283.455 647.339 287.932 652.862 287.932Z" fill="#3F3D56"/>
<path d="M904.361 139.932H743.361V141.932H904.361V139.932Z" fill="#3F3D56"/>
<path d="M904.361 251.7H743.361V253.7H904.361V251.7Z" fill="#3F3D56"/>
<path d="M702.96 277H652.96V226H686.96V228H654.96V275H700.96V252H702.96V277Z" fill="#3F3D56"/>
<path d="M702.96 165H652.96V114H686.96V116H654.96V163H700.96V140H702.96V165Z" fill="#3F3D56"/>
<path d="M702.96 51H652.96V0H686.96V2H654.96V49H700.96V26H702.96V51Z" fill="#3F3D56"/>
<path d="M376.505 181.771C376.505 181.771 363.142 238.193 379.474 238.193C395.807 238.193 434.411 174.348 434.411 174.348L421.048 158.015L397.063 191.315L395.807 174.348L376.505 181.771Z" fill="#A0616A"/>
<path d="M430.85 176.801C438.03 176.801 443.85 170.98 443.85 163.801C443.85 156.621 438.03 150.801 430.85 150.801C423.67 150.801 417.85 156.621 417.85 163.801C417.85 170.98 423.67 176.801 430.85 176.801Z" fill="#A0616A"/>
<path d="M365.175 566.048L382.478 566.047L390.711 499.301L365.171 499.302L365.175 566.048Z" fill="#A0616A"/>
<path d="M364.565 584.1L417.778 584.098V583.425C417.778 577.932 415.595 572.664 411.711 568.78C407.827 564.895 402.559 562.713 397.066 562.713H397.065L387.345 555.339L369.21 562.714L364.564 562.714L364.565 584.1Z" fill="#2F2E41"/>
<path d="M179.038 544.459L194.521 552.185L231.693 496.14L208.841 484.736L179.038 544.459Z" fill="#A0616A"/>
<path d="M170.431 560.338L218.044 584.099L218.345 583.497C220.797 578.582 221.197 572.894 219.457 567.684C217.716 562.474 213.977 558.169 209.062 555.716L209.061 555.716L203.657 544.777L184.137 543.277L179.98 541.203L170.431 560.338Z" fill="#2F2E41"/>
<path d="M253.298 284.128C253.298 284.128 246.383 367.276 244.898 385.094C243.88 396.262 241.384 407.247 237.474 417.759C237.474 417.759 234.505 423.698 234.505 429.637L200.85 490.801C200.85 490.801 190.566 498.36 192.051 504.299C193.535 510.238 185.85 513.801 185.85 513.801L221.292 520.631C221.292 520.631 219.807 516.177 224.261 514.692C228.716 513.208 232.261 500.329 232.261 500.329L282.018 419.243L317.652 345.005C317.652 345.005 338.439 411.82 342.893 419.243C342.893 419.243 359.225 502.39 362.195 509.814C365.164 517.238 366.649 517.238 365.164 520.208C363.68 523.177 363.68 526.147 365.164 527.631C366.649 529.116 394.86 527.631 394.86 527.631L387.436 422.213L374.073 296.007L305.774 275.221L253.298 284.128Z" fill="#2F2E41"/>
<path d="M320.167 85.6318C337.387 85.6318 351.347 71.6719 351.347 54.4516C351.347 37.2313 337.387 23.2715 320.167 23.2715C302.947 23.2715 288.987 37.2313 288.987 54.4516C288.987 71.6719 302.947 85.6318 320.167 85.6318Z" fill="#A0616A"/>
<path d="M377.042 131.198L339.924 108.709C339.924 108.709 338.896 94.7447 328.32 94.0876C323.01 93.7577 315.042 93.2533 303.085 92.4824C300.558 92.3195 298.853 106.145 295.957 105.957L256.776 116.35L262.715 217.315C262.715 217.315 253.807 257.403 256.776 264.827C259.746 272.251 249.352 275.221 252.322 276.705C255.291 278.19 252.322 288.584 252.322 288.584C252.322 288.584 310.228 318.279 374.073 296.007L368.134 276.705C368.942 274.182 369.094 271.495 368.574 268.897C368.054 266.299 366.881 263.876 365.164 261.858C365.164 261.858 371.103 252.949 363.679 245.525C363.679 245.525 366.649 232.162 359.225 226.223L357.74 205.436L362.195 195.043L377.042 131.198Z" fill="#E6E6E6"/>
<path d="M293.111 72.2639L292.239 70.2395C292.127 69.9777 281.1 43.9104 290.874 27.8313C295.398 20.3874 303.625 16.1848 315.326 15.341C333.633 14.0173 346.163 18.36 352.577 28.2395C353.652 29.9138 354.257 31.847 354.327 33.8358C354.397 35.8246 353.929 37.7955 352.974 39.5413C352.019 41.287 350.611 42.7432 348.898 43.7567C347.186 44.7701 345.232 45.3034 343.242 45.3005H342.996L339.632 40.9328L339.436 41.3576C338.218 43.9924 335.421 45.4347 332.146 45.1188C331.588 45.0788 331.095 45.5597 330.698 46.5891C330.565 47.0393 330.313 47.4453 329.968 47.7645C329.624 48.0837 329.2 48.3043 328.741 48.403C326.32 48.8742 322.87 45.8254 321.326 44.3059C321.266 44.6556 321.132 44.9885 320.933 45.282C320.734 45.5754 320.474 45.8227 320.17 46.007C318.543 46.946 316.01 45.7195 315.283 45.3288C309.492 46.5593 305.743 46.2302 304.137 44.3518C303.048 52.0554 300.711 65.9216 297.909 66.6902C297.616 66.7575 297.309 66.7289 297.034 66.6085C296.758 66.4882 296.529 66.2824 296.379 66.0217C295.705 65.1457 295.102 64.7092 294.725 64.8318C293.814 65.1218 293.275 68.1238 293.198 70.0612L293.111 72.2639Z" fill="#2F2E41"/>
<path d="M360.71 132.683L375.521 130.276C386.191 140.528 393.459 153.805 396.345 168.317C400.799 192.073 402.284 196.528 402.284 196.528L366.649 205.436L347.347 168.317L360.71 132.683Z" fill="#E6E6E6"/>
<path d="M294.987 163.583L285.834 279.617L519.419 298.043L528.572 182.009L294.987 163.583Z" fill="white"/>
<path d="M319.943 172.572C314.226 168.49 306.969 168.195 304.196 168.254C305.042 170.894 307.671 177.665 313.387 181.749C319.117 185.842 326.366 186.128 329.134 186.071C328.289 183.431 325.66 176.657 319.943 172.572Z" fill="#FF6366"/>
<path d="M342.493 246.407L304.986 243.449C303.878 243.361 302.764 243.493 301.706 243.836C300.649 244.18 299.67 244.728 298.824 245.45C297.979 246.171 297.284 247.053 296.779 248.043C296.274 249.034 295.969 250.114 295.882 251.222C295.794 252.33 295.926 253.445 296.269 254.502C296.613 255.559 297.161 256.539 297.883 257.384C298.605 258.23 299.486 258.925 300.476 259.43C301.467 259.934 302.547 260.239 303.655 260.327L341.162 263.285C343.4 263.462 345.617 262.742 347.324 261.284C349.032 259.827 350.09 257.75 350.267 255.512C350.443 253.274 349.724 251.057 348.266 249.35C346.808 247.642 344.732 246.584 342.493 246.407Z" fill="#FF6366"/>
<path d="M519.364 170.73L309.074 154.14C306.628 153.947 304.168 154.238 301.834 154.996C299.501 155.754 297.34 156.965 295.474 158.558C293.608 160.151 292.075 162.097 290.961 164.283C289.847 166.469 289.175 168.853 288.982 171.299L280.895 273.75C280.506 278.691 282.095 283.584 285.313 287.354C288.532 291.123 293.115 293.46 298.056 293.851L508.346 310.441C510.792 310.634 513.252 310.343 515.585 309.585C517.919 308.826 520.08 307.616 521.946 306.023C523.812 304.429 525.345 302.484 526.459 300.298C527.573 298.112 528.245 295.728 528.438 293.282L536.123 195.907L536.278 193.917L536.523 190.821C536.715 188.375 536.424 185.916 535.666 183.582C534.908 181.249 533.698 179.087 532.105 177.222C530.511 175.356 528.566 173.822 526.38 172.709C524.194 171.595 521.81 170.922 519.364 170.73ZM513.154 259.868L511.822 276.746C511.578 279.727 510.164 282.491 507.889 284.432C505.614 286.374 502.662 287.335 499.68 287.107L471.547 284.89C468.565 284.647 465.802 283.233 463.861 280.957C461.919 278.682 460.957 275.731 461.186 272.749L462.518 255.87C462.763 252.889 464.177 250.127 466.452 248.185C468.727 246.244 471.678 245.282 474.66 245.509L502.784 247.728C505.764 247.973 508.528 249.387 510.471 251.661C512.413 253.935 513.378 256.885 513.154 259.868ZM294.02 251.066C294.239 248.335 295.531 245.802 297.615 244.023C299.699 242.243 302.403 241.363 305.135 241.575L342.64 244.536C343.995 244.641 345.316 245.011 346.528 245.627C347.739 246.242 348.818 247.09 349.701 248.122C350.585 249.155 351.257 250.351 351.678 251.643C352.099 252.935 352.261 254.297 352.155 255.652C352.05 257.007 351.678 258.328 351.062 259.539C350.445 260.75 349.596 261.827 348.563 262.71C347.53 263.593 346.333 264.264 345.041 264.684C343.749 265.104 342.386 265.265 341.032 265.158L341.012 265.163L303.507 262.202C302.152 262.095 300.832 261.722 299.622 261.104C298.412 260.487 297.335 259.636 296.454 258.602C295.573 257.567 294.904 256.369 294.487 255.076C294.069 253.783 293.911 252.421 294.02 251.066ZM302.05 167.585L301.793 166.536L302.872 166.437C303.294 166.391 313.271 165.496 321.037 171.043C328.803 176.591 331.185 186.324 331.288 186.731L331.535 187.783L330.459 187.891C328.931 188.005 327.396 187.995 325.87 187.861C321.014 187.577 316.325 185.993 312.291 183.275C304.525 177.728 302.143 167.994 302.05 167.585Z" fill="#FF6366"/>
<path d="M481.603 271.062L469.414 270.1C468.544 270.033 467.684 270.314 467.021 270.881C466.358 271.448 465.947 272.254 465.879 273.124C465.81 273.993 466.089 274.854 466.655 275.518C467.221 276.181 468.027 276.594 468.896 276.664L481.086 277.625C481.955 277.692 482.816 277.412 483.479 276.845C484.141 276.278 484.552 275.471 484.621 274.602C484.689 273.733 484.41 272.871 483.844 272.208C483.279 271.544 482.473 271.132 481.603 271.062Z" fill="#FF6366"/>
<path d="M504.108 272.837L491.918 271.875C491.049 271.809 490.189 272.09 489.526 272.657C488.864 273.224 488.454 274.03 488.385 274.899C488.317 275.768 488.596 276.629 489.161 277.292C489.726 277.956 490.531 278.368 491.4 278.439L503.59 279.401C504.459 279.467 505.319 279.186 505.981 278.619C506.643 278.052 507.054 277.246 507.122 276.377C507.191 275.508 506.912 274.647 506.347 273.984C505.782 273.32 504.976 272.908 504.108 272.837Z" fill="#FF6366"/>
<path d="M482.269 262.623L470.079 261.661C469.21 261.595 468.35 261.876 467.688 262.442C467.025 263.009 466.615 263.816 466.546 264.685C466.478 265.554 466.757 266.414 467.322 267.078C467.887 267.742 468.692 268.154 469.561 268.225L481.751 269.186C482.621 269.253 483.481 268.973 484.144 268.406C484.807 267.839 485.217 267.032 485.286 266.163C485.355 265.293 485.075 264.432 484.51 263.769C483.944 263.105 483.138 262.693 482.269 262.623Z" fill="#FF6366"/>
<path d="M504.773 264.398L492.584 263.436C491.714 263.369 490.854 263.65 490.191 264.217C489.528 264.783 489.117 265.59 489.049 266.459C488.98 267.329 489.259 268.19 489.825 268.854C490.391 269.517 491.197 269.93 492.066 270L504.256 270.961C505.125 271.028 505.986 270.748 506.649 270.181C507.311 269.614 507.722 268.807 507.791 267.938C507.859 267.068 507.58 266.207 507.014 265.544C506.449 264.88 505.643 264.468 504.773 264.398Z" fill="#FF6366"/>
<path d="M482.935 254.183L470.745 253.222C469.875 253.155 469.015 253.435 468.352 254.002C467.689 254.569 467.278 255.376 467.21 256.245C467.141 257.115 467.421 257.976 467.986 258.639C468.552 259.303 469.358 259.715 470.227 259.785L482.417 260.747C483.286 260.813 484.146 260.532 484.808 259.966C485.471 259.399 485.881 258.592 485.95 257.723C486.018 256.854 485.739 255.994 485.174 255.33C484.609 254.666 483.804 254.254 482.935 254.183Z" fill="#FF6366"/>
<path d="M505.439 255.958L493.249 254.997C492.38 254.93 491.52 255.211 490.857 255.778C490.195 256.345 489.785 257.151 489.716 258.021C489.648 258.89 489.927 259.75 490.492 260.414C491.057 261.078 491.862 261.49 492.731 261.561L504.921 262.522C505.79 262.589 506.65 262.308 507.312 261.741C507.975 261.174 508.385 260.368 508.454 259.499C508.522 258.63 508.243 257.769 507.678 257.105C507.113 256.442 506.308 256.029 505.439 255.958Z" fill="#FF6366"/>
<path d="M285.856 203.625L285.7 205.62L532.552 225.011L532.709 223.016L285.856 203.625Z" fill="white"/>
<path d="M536.278 193.917L536.123 195.907L527.532 195.233L435.999 188.043L436.164 186.051L527.687 193.243L536.278 193.917Z" fill="#3F3D56"/>
<path d="M234.505 172.771C234.505 172.771 221.142 229.193 237.474 229.193C253.807 229.193 292.411 165.348 292.411 165.348L279.048 149.015L255.063 182.315L253.806 165.348L234.505 172.771Z" fill="#A0616A"/>
<path d="M288.85 167.801C296.03 167.801 301.85 161.98 301.85 154.801C301.85 147.621 296.03 141.801 288.85 141.801C281.67 141.801 275.85 147.621 275.85 154.801C275.85 161.98 281.67 167.801 288.85 167.801Z" fill="#A0616A"/>
<path d="M267.592 125.259L258.684 116.351C258.684 116.351 240.867 126.744 239.382 137.137C237.897 147.531 230.473 180.196 230.473 180.196L257.941 182.423L266.85 169.06L267.592 125.259Z" fill="#E6E6E6"/>
</g>
<defs>
<clipPath id="clip0_2343_17289">
<rect width="904.362" height="586.406" fill="white"/>
</clipPath>
</defs>
</svg>
